<svg id="Layer_3" enable-background="new 0 0 64 64" height="512" viewBox="0 0 64 64" width="512" xmlns="http://www.w3.org/2000/svg"><path d="m62.991 30c0-.26-.093-.516-.284-.707l-8-8c-.187-.188-.441-.293-.707-.293h-10v-2h5c.553 0 1-.448 1-1v-16c0-.552-.447-1-1-1h-34c-.553 0-1 .448-1 1v16c0 .552.447 1 1 1h5v2h-10c-.266 0-.52.105-.707.293l-8 8c-.191.191-.284.447-.284.707h-.009v5c0 1.771.776 3.36 2 4.46v22.54c0 .552.447 1 1 1h56c.553 0 1-.448 1-1v-22.54c1.224-1.099 2-2.688 2-4.46v-5zm-20.991-9h-2v-2h2zm-4-2v2h-12v-2zm-22-16h32v14h-32zm6 16h2v2h-2zm-11.586 4h43.172l6 6h-55.172zm-7.414 12v-4h8v4c0 2.206-1.794 4-4 4s-4-1.794-4-4zm10-4h8v4c0 2.206-1.794 4-4 4s-4-1.794-4-4zm10 0h8v4c0 2.206-1.794 4-4 4s-4-1.794-4-4zm10 0h8v4c0 2.206-1.794 4-4 4s-4-1.794-4-4zm10 0h8v4c0 2.206-1.794 4-4 4s-4-1.794-4-4zm-18 30h-6v-14h6zm-8 0h-6v-14h6zm36 0h-6v-14h6zm-8 0h-6v-14h6zm14 0h-4v-15c0-.552-.447-1-1-1h-16c-.553 0-1 .448-1 1v15h-10v-15c0-.552-.447-1-1-1h-16c-.553 0-1 .448-1 1v15h-4v-20.35c.627.222 1.298.35 2 .35 2.086 0 3.924-1.071 5-2.69 1.076 1.62 2.914 2.69 5 2.69s3.924-1.071 5-2.69c1.076 1.62 2.914 2.69 5 2.69s3.924-1.071 5-2.69c1.076 1.62 2.914 2.69 5 2.69s3.924-1.071 5-2.69c1.076 1.62 2.914 2.69 5 2.69s3.924-1.071 5-2.69c1.076 1.62 2.914 2.69 5 2.69.702 0 1.373-.128 2-.35zm-2-22c-2.206 0-4-1.794-4-4v-4h8v4c0 2.206-1.794 4-4 4z"/><path d="m18 8v4c0 1.654 1.346 3 3 3h3v-2h-3c-.552 0-1-.449-1-1v-4c0-.551.448-1 1-1h3v-2h-3c-1.654 0-3 1.346-3 3z"/><path d="m34 7v8h2v-4h3v-2h-3v-2h3v-2h-3c-1.103 0-2 .897-2 2z"/><path d="m41 7v6c0 1.103.897 2 2 2h3v-2h-3v-2h3v-2h-3v-2h3v-2h-3c-1.103 0-2 .897-2 2z"/><path d="m29 5c-1.654 0-3 1.346-3 3v7h2v-2h2v2h2v-7c0-1.654-1.346-3-3-3zm-1 6v-3c0-.551.448-1 1-1s1 .449 1 1v3z"/></svg>