<svg height="512" viewBox="0 0 512 512" width="512" xmlns="http://www.w3.org/2000/svg"><g><path d="m304 192h-24a8 8 0 0 0 -8 8v80a8 8 0 0 0 8 8h24a8 8 0 0 0 8-8v-80a8 8 0 0 0 -8-8zm-8 80h-8v-64h8z"/><path d="m208 96h96a8 8 0 0 0 0-16h-96a8 8 0 0 0 0 16z"/><path d="m208 120h96a8 8 0 0 0 0-16h-96a8 8 0 0 0 0 16z"/><path d="m208 144h96a8 8 0 0 0 0-16h-96a8 8 0 0 0 0 16z"/><path d="m208 384h96a8 8 0 0 0 0-16h-96a8 8 0 0 0 0 16z"/><path d="m208 408h96a8 8 0 0 0 0-16h-96a8 8 0 0 0 0 16z"/><path d="m496 40h-480a8 8 0 0 0 -8 8v416a8 8 0 0 0 8 8h32a8 8 0 0 0 8-8v-24h80v24a8 8 0 0 0 8 8h64a8 8 0 0 0 8-8v-24h80v24a8 8 0 0 0 8 8h64a8 8 0 0 0 8-8v-24h80v24a8 8 0 0 0 8 8h32a8 8 0 0 0 8-8v-416a8 8 0 0 0 -8-8zm-456 416h-16v-16h16zm128 0h-16v-16h16zm0-32h-144v-368h144zm32 32h-16v-16h16zm128 0h-16v-16h16zm0-32h-144v-368h144zm32 32h-16v-16h16zm128 0h-16v-16h16zm0-32h-144v-368h144z"/><path d="m464 192h-24a8 8 0 0 0 -8 8v80a8 8 0 0 0 8 8h24a8 8 0 0 0 8-8v-80a8 8 0 0 0 -8-8zm-8 80h-8v-64h8z"/><path d="m368 96h96a8 8 0 0 0 0-16h-96a8 8 0 0 0 0 16z"/><path d="m368 120h96a8 8 0 0 0 0-16h-96a8 8 0 0 0 0 16z"/><path d="m368 144h96a8 8 0 0 0 0-16h-96a8 8 0 0 0 0 16z"/><path d="m368 384h96a8 8 0 0 0 0-16h-96a8 8 0 0 0 0 16z"/><path d="m368 408h96a8 8 0 0 0 0-16h-96a8 8 0 0 0 0 16z"/><path d="m144 192h-24a8 8 0 0 0 -8 8v80a8 8 0 0 0 8 8h24a8 8 0 0 0 8-8v-80a8 8 0 0 0 -8-8zm-8 80h-8v-64h8z"/><path d="m48 96h96a8 8 0 0 0 0-16h-96a8 8 0 0 0 0 16z"/><path d="m48 120h96a8 8 0 0 0 0-16h-96a8 8 0 0 0 0 16z"/><path d="m48 144h96a8 8 0 0 0 0-16h-96a8 8 0 0 0 0 16z"/><path d="m48 384h96a8 8 0 0 0 0-16h-96a8 8 0 0 0 0 16z"/><path d="m144 408a8 8 0 0 0 0-16h-96a8 8 0 0 0 0 16z"/></g></svg>